<svg xmlns="http://www.w3.org/2000/svg" width="365.986" height="329.406" viewBox="0 0 365.986 329.406">
  <g id="Header" transform="translate(23.927 -140.166)">
    <path id="Path_23" data-name="Path 23" d="M176.266,239.382a68.949,68.949,0,0,0,13.326,3.69c36.935,6.35,73.074-19.242,79.344-56.19a69.375,69.375,0,0,0,.855-7.449c1.211-20.142,8.2-39.607,21.066-55.153a53.122,53.122,0,0,0,11.4-24.732c5.052-28.707-14.82-56.947-43.548-61.874a53.565,53.565,0,0,0-11.7-.712,63.212,63.212,0,0,1-46.742-17.727A69.671,69.671,0,0,0,164.521,1.015c-27.208-4.967-60.7,8.476-75.314,36.392C78.677,57.516,62.5,74.2,42.19,84.327A76.068,76.068,0,0,0,1.1,139.342c-7.042,40.09,20.372,80.1,60.315,87.939a76.234,76.234,0,0,0,25.3.716C117.012,223.754,147.762,228.295,176.266,239.382Z" transform="translate(55.525 140.166) rotate(19)" fill="#fff" opacity="0.2"/>
  </g>
</svg>
